name processed_emg_signals
nRows=82
nColumns=7
 
endheader
time	RGLTMED	RRF	RADDLONG	RST	RTA	RGM
1.2550000000000001	0.7752709658370684	0.6714702980820547	0.5681670478098293	0.1568174638890049	0.2400048947510457	0.1439400312831765
1.256	0.7804521529926696	0.6770942506710589	0.5702357869293022	0.1543024608183969	0.233022495414282	0.1434960658704663
1.2570000000000001	0.785472153311732	0.6825919160286252	0.5722961847728933	0.1518216019164252	0.2261739303267209	0.1430729672986486
1.258	0.7903288030533628	0.6879589556989694	0.5743467477307976	0.149376062120284	0.2194611905224449	0.1426705934519981
1.2590000000000001	0.7950201287922309	0.6931911053032427	0.5763859752417867	0.1469669752547795	0.2128861317686784	0.1422887904746922
1.26	0.7995443476428048	0.6982841794769516	0.578412361430685	0.1445954327925699	0.2064504735645555	0.1419273934722834
1.2610000000000001	0.8038998671196784	0.7032340768215892	0.5804243967721473	0.142262482682794	0.2001557983420893	0.1415862271875578
1.262	0.8080852846336705	0.7080367848743025	0.5824205697891855	0.1399691282507147	0.1940035508678414	0.141265106646906
1.2630000000000001	0.8120993866238564	0.7126883850984832	0.5843993687945388	0.1377163271708117	0.1879950378437593	0.1409638377743876
1.264	0.8159411473264813	0.7171850578976843	0.5863592836813456	0.1355049905152397	0.1821314277054347	0.140682217972024
1.2650000000000001	0.8196097271848981	0.721523087653597	0.5882988077687815	0.1333359818792094	0.1764137506160215	0.1404200366660281
1.266	0.8231044709073214	0.7256988677877712	0.5902164397074053	0.1312101165843205	0.170842898653843	0.140177075819677
1.2670000000000001	0.8264249051843764	0.7297089058452121	0.5921106854481144	0.1291281609605917	0.1654196261913731	0.1399531104141068
1.268	0.8295707360813398	0.7335498285967231	0.5939800602768678	0.1270908317073385	0.1601445504629824	0.1397479088988004
1.2690000000000001	0.8325418461237225	0.737218387156093	0.5958230909175398	0.1250987953329349	0.1550181523182912	0.1395612336137034
1.27	0.8353382910962902	0.7407114621070274	0.5976383177032494	0.1231526676731772	0.150040777157636	0.1393928411848709
1.2710000000000001	0.8379602965769204	0.7440260686342333	0.5994242968169854	0.1212530134876454	0.145212636045736	0.139242482895302
1.272	0.8404082542259672	0.7471593616521777	0.6011796026010067	0.1194003461336478	0.1405338069994653	0.1391099050326157
1.2730000000000001	0.8426827178509797	0.7501086409240312	0.60290282993457	0.1175951273170212	0.1360042364452103	0.1389948492151752
1.274	0.8447843992640648	0.7528713561623985	0.6045925966785447	0.1158377669192063	0.1316237408412226	0.1388970526984261
1.2750000000000001	0.8467141639487366	0.7554451121020868	0.6062475461840324	0.1141286229000671	0.1273920084600157	0.1388162486632833
1.276	0.848473026551392	0.7578276735341284	0.6078663498611688	0.1124680012757895	0.1233086013258677	0.1387521664883458
1.2770000000000001	0.8500621462138576	0.7600169702889539	0.609447709802493	0.1108561561713284	0.1193729573021773	0.1387045320074892
1.278	0.8514828217639017	0.7620111021550516	0.6109903614534066	0.1092932899464896	0.1155843923233566	0.1386730677542295
1.2790000000000001	0.8527364867827975	0.7638083437178392	0.6124930763208353	0.1077795533948834	0.1119421027655914	0.1386574931940871
1.28	0.8538247045696942	0.765407149102069	0.6139546647102277	0.1063150460147552	0.1084451679507505	0.1386575249458251
1.281	0.8547491630233293	0.7668061565991066	0.6153739784788488	0.1048998163505659	0.1050925527773456	0.1386728769921823
1.282	0.8555116694612712	0.7680041931592706	0.616749913793295	0.1035338624042989	0.1018831104722705	0.1387032608805782
1.283	0.8561141453966694	0.7690002787278317	0.6180814138774721	0.1022171321152137	0.0988155854567886	0.1387483859140169
1.284	0.8565586212916709	0.7697936304024827	0.619367471735437	0.1009495239068428	0.0958886163201087	0.1388079593326178
1.285	0.8568472313052835	0.770383666389479	0.6206071328339059	0.0997308872998527	0.0931007388938415	0.1388816864863091
1.286	0.856982208051801	0.7707700097345257	0.6217994977268876	0.0985610235894442	0.0904503894205442	0.1389692709994838
1.287	0.8569658773844654	0.7709524918038944	0.6229437246061564	0.0974396865858638	0.0879359078096421	0.1390704149284922
1.288	0.8568006532172016	0.770931155489935	0.6240390317591545	0.096366583416744	0.0855555409740777	0.1391848189126837
1.289	0.8564890323968531	0.7707062581139523	0.6250846999164921	0.095341375389915	0.083307446241293	0.1393121823194607
1.29	0.8560335896369102	0.7702782739982881	0.6260800744691263	0.0943636789153404	0.0811896948321915	0.1394522033836246
1.291	0.8554369725231213	0.7696478966781986	0.6270245675364676	0.0934330664848938	0.0792002754019682	0.1396045793411738
1.292	0.8547018966001171	0.768816040724595	0.6279176598662114	0.0925490677086135	0.0773370976366294	0.1397690065578105
1.293	0.8538311405464134	0.7677838431492408	0.6287589025491327	0.091711170405883	0.0755979958990236	0.1399451806526233
1.294	0.852827541443564	0.7665526643664938	0.6295479185349832	0.0909188217499544	0.0739807329182376	0.1401327966173592
1.295	0.8516939901437812	0.7651240886888291	0.6302844039381895	0.0901714294639089	0.0724830035160071	0.1403315489317969
1.296	0.8504334267382933	0.7634999243375405	0.6309681291261268	0.0894683630659138	0.0711024383638476	0.1405411316756785
1.297	0.8490488361272411	0.7616822029547511	0.6315989395856172	0.0888089551614486	0.0698366077645643	0.1407612386377365
1.298	0.8475432436898405	0.7596731786069261	0.6321767565668145	0.0881925027798787	0.0686830254518115	0.1409915634222297
1.299	0.8459197110518942	0.7574753262736655	0.6327015775056364	0.0876182687525851	0.0676391524015002	0.1412317995534424
1.3	0.8441813319461527	0.755091339819771	0.6331734762287975	0.0870854831295477	0.0667024006487817	0.1414816405782358
1.301	0.8423312281602837	0.7525241294523609	0.6335926029452396	0.0865933446312285	0.0658701371044026	0.1417407801664758
1.302	0.8403725455665508	0.7497768186687171	0.6339591840288303	0.0861410221323822	0.0651396873641246	0.1420089122087151
1.303	0.8383084502268222	0.7468527407028921	0.6342735215962778	0.0857276561746212	0.0645083395049847	0.1422857309101994
1.304	0.836142124566655	0.7437554344821476	0.6345359928842098	0.0853523605045744	0.0639733478621447	0.1425709308798964
1.305	0.8338767636128378	0.7404886401067954	0.6347470494286227	0.0850142236347091	0.0635319367802644	0.1428642072129695
1.306	0.8315155712894264	0.7370562938704236	0.6349072160496807	0.0847123104239516	0.0631813043332795	0.1431652555649275
1.307	0.8290617567677115	0.733462522840197	0.6350170896446709	0.0844456636753325	0.0629186260066675	0.1434737722154168
1.308	0.8265185308655301	0.7297116390192343	0.6350773377943556	0.0842133057477168	0.062741058336286	0.1437894541196219
1.309	0.8238891024923668	0.7258081331157668	0.6350886971891299	0.0840142401786071	0.0626457424981526	0.1441119989456613
1.31	0.8211766751391184	0.7217566679452586	0.6350519718851675	0.0838474533146431	0.0626298078436002	0.1444411050967744
1.311	0.8183844434137062	0.7175620714927813	0.6349680314018068	0.0837119159464073	0.0626903753746277	0.144776471717793
1.312	0.8155155896250834	0.7132293296633074	0.6348378086737869	0.0836065849439368	0.0628245611544877	0.1451177986861092
1.313	0.8125732804188006	0.7087635787479419	0.6346622978705545	0.0835304048892362	0.063029479648821	0.1454647865876212
1.314	0.8095606634687188	0.7041700976343642	0.6344425520956315	0.0834823097022995	0.0633022469929896	0.1458171366784068
1.315	0.8064808642324414	0.6994542997893457	0.6341796809777912	0.0834612242569949	0.0636399841816664	0.1461745508328261
1.316	0.8033369827817993	0.6946217250401986	0.6338748481658402	0.083466065983722	0.0640398201773556	0.1465367314785575
1.317	0.8001320907233759	0.6896780311804155	0.6335292687387557	0.0834957464557693	0.0644988949350254	0.146903381519153
1.318	0.7968692282257518	0.684628985423668	0.633144206542576	0.0835491729568727	0.0650143623406127	0.147274204244752
1.319	0.7935514011697112	0.6794804557285743	0.6327209714642557	0.0836252500275953	0.065583393061539	0.1476489032315934
1.32	0.7901815784365207	0.6742384020156352	0.6322609166522433	0.0837228809884843	0.0662031773077854	0.1480271822311697
1.321	0.7867626893467086	0.6689088672964498	0.6317654356941406	0.08384096943808	0.0668709275024175	0.148408745049669
1.322	0.7832976212605397	0.6634979687344951	0.6312359597608316	0.0839784207239303	0.0675838808605868	0.1487932954183569
1.323	0.7797892173486545	0.6580118886561335	0.6306739547279846	0.0841341433848558	0.0683393018761777	0.1491805368553322
1.324	0.7762402745396596	0.6524568655293559	0.630080918285011	0.0843070505627035	0.0691344847151867	0.1495701725190231
1.325	0.7726535416484893	0.6468391849268332	0.6294583770411439	0.0844960613817736	0.0699667555150111	0.149961905053884
1.326	0.769031717687825	0.6411651704880881	0.6288078836374026	0.084700102294198	0.0708334745888138	0.1503554364287927
1.327	0.765377450361994	0.6354411748944172	0.6281310138716454	0.0849181083894216	0.0717320385343345	0.1507504677690117
1.328	0.7616933347420125	0.6296735708688896	0.6274293638416318	0.0851490246661056	0.0726598822467719	0.1511466991828544
1.329	0.7579819121189298	0.6238687422130077	0.6267045471095671	0.0853918072646959	0.0736144808356304	0.151543829584614
1.33	0.7542456690324523	0.6180330748914002	0.6259581918891746	0.0856454246590081	0.0745933514456775	0.1519415565156043
1.331	0.7504870364717161	0.6121729481759972	0.6251919382553455	0.085908858805352	0.0755940549823587	0.1523395759657216
1.332	0.7467083892456922	0.6062947258620122	0.6244074353749507	0.0861811062478507	0.0766141977421534	0.1527375821982518
1.333	0.7429120455212243	0.6004047475686193	0.6236063387574469	0.0864611791788785	0.0776514329484394	0.1531352675808969
1.334	0.7391002665275583	0.5945093201374305	0.6227903075224959	0.0867481064537931	0.0787034621934384	0.1535323224260789
1.335	0.7352752564266368	0.5886147091419692	0.6219610016836559	0.0870409345594391	0.0797680367867579	0.1539284348436096
1.336	0.7314391623484269	0.5827271305219297	0.6211200794450848	0.0873387285361669	0.0808429590110265	0.1543232906087151
